HIERARCHY
ROOT Hips
{
 OFFSET 0.000000 0.000000 0.000000
 CHANNELS 6 Xposition Yposition Zposition Yrotation Xrotation Zrotation
 JOINT Chest
 {
  OFFSET 0.000000 9.812683 -0.003552
  CHANNELS 3 Yrotation Xrotation Zrotation
  JOINT Chest2
  {
   OFFSET 0.000000 9.777810 0.007248
   CHANNELS 3 Yrotation Xrotation Zrotation
   JOINT Chest3
   {
    OFFSET 0.000000 9.736392 0.000000
    CHANNELS 3 Yrotation Xrotation Zrotation
    JOINT Chest4
    {
     OFFSET 0.000000 9.726454 0.000000
     CHANNELS 3 Yrotation Xrotation Zrotation
     JOINT Neck
     {
      OFFSET 0.000000 14.679095 0.000000
      CHANNELS 3 Yrotation Xrotation Zrotation
      JOINT Head
      {
       OFFSET 0.000000 9.104124 0.015333
       CHANNELS 3 Yrotation Xrotation Zrotation
       End Site
       {
        OFFSET 0.000000 17.313862 0.008094
       }
      }
     }
     JOINT RightCollar
     {
      OFFSET -2.991841 9.728033 0.000000
      CHANNELS 3 Yrotation Xrotation Zrotation
      JOINT RightShoulder
      {
       OFFSET -14.105608 0.000000 0.000000
       CHANNELS 3 Yrotation Xrotation Zrotation
       JOINT RightElbow
       {
        OFFSET -30.920614 0.000000 0.000000
        CHANNELS 3 Yrotation Xrotation Zrotation
        JOINT RightWrist
        {
         OFFSET -25.011638 0.000000 0.000000
         CHANNELS 3 Yrotation Xrotation Zrotation
         End Site
         {
          OFFSET -18.498852 0.000000 0.000000
         }
        }
       }
      }
     }
     JOINT LeftCollar
     {
      OFFSET 2.991841 9.728033 0.000000
      CHANNELS 3 Yrotation Xrotation Zrotation
      JOINT LeftShoulder
      {
       OFFSET 14.105608 0.000000 0.000000
       CHANNELS 3 Yrotation Xrotation Zrotation
       JOINT LeftElbow
       {
        OFFSET 30.920614 0.000000 0.000000
        CHANNELS 3 Yrotation Xrotation Zrotation
        JOINT LeftWrist
        {
         OFFSET 25.011638 0.000000 0.000000
         CHANNELS 3 Yrotation Xrotation Zrotation
         End Site
         {
          OFFSET 18.498852 0.000000 0.000000
         }
        }
       }
      }
     }
    }
   }
  }
 }
 JOINT RightHip
 {
  OFFSET -8.005612 0.017580 0.001776
  CHANNELS 3 Yrotation Xrotation Zrotation
  JOINT RightKnee
  {
   OFFSET 0.000000 -41.413990 -0.001697
   CHANNELS 3 Yrotation Xrotation Zrotation
   JOINT RightAnkle
   {
    OFFSET 0.000000 -40.303361 -0.002870
    CHANNELS 3 Yrotation Xrotation Zrotation
    JOINT RightToe
    {
     OFFSET 0.000000 -7.855341 17.873357
     CHANNELS 3 Yrotation Xrotation Zrotation
     End Site
     {
      OFFSET 0.000000 -1.536332 6.874071
     }
    }
   }
  }
 }
 JOINT LeftHip
 {
  OFFSET 8.005612 0.017580 0.001776
  CHANNELS 3 Yrotation Xrotation Zrotation
  JOINT LeftKnee
  {
   OFFSET 0.000000 -41.413990 -0.001697
   CHANNELS 3 Yrotation Xrotation Zrotation
   JOINT LeftAnkle
   {
    OFFSET 0.000000 -40.303361 -0.002870
    CHANNELS 3 Yrotation Xrotation Zrotation
    JOINT LeftToe
    {
     OFFSET 0.000000 -7.855341 17.873357
     CHANNELS 3 Yrotation Xrotation Zrotation
     End Site
     {
      OFFSET 0.000000 -1.536332 6.874071
     }
    }
   }
  }
 }
}
MOTION
Frames: 5
Frame Time: 0.008333
0.000000 89.373800 0.000000 0.000000 -5.767889 0.000000 0.000000 11.653876 0.000000 0.000000 -5.885988 0.000000 0.000000 -0.000000 0.000000 0.000000 -0.000000 0.000000 0.000000 12.528808 0.000000 0.000000 0.711711 0.000000 0.000000 -0.000000 0.000000 0.000000 -0.000000 0.000000 2.309063 -0.000000 0.000000 -2.309063 -0.000000 -0.000000 0.000000 -0.000000 0.000000 0.000000 0.000000 0.000000 -2.309063 0.000000 0.000000 2.309063 -0.000000 0.000000 0.000000 8.520374 0.000000 0.000000 1.905768 0.000000 -0.000000 -4.658254 0.000000 0.000000 -0.000000 0.000000 0.000000 8.520374 0.000000 0.000000 1.905768 0.000000 -0.000000 -4.658254 0.000000 0.000000 -0.000000 0.000000
-18.947537 87.016114 105.714149 -129.213099 -9.529381 -0.955555 3.393323 12.736027 4.431942 0.223286 1.167386 0.334882 0.381646 1.973353 0.569080 2.687514 12.046479 3.750868 1.534138 30.487608 -3.756155 2.558796 8.597241 -4.539864 -12.509468 2.964718 -3.293178 6.155923 -0.767631 87.742485 14.382051 -8.032504 9.252750 13.442443 -1.848681 -3.110014 -4.803999 5.210313 0.395228 4.190965 5.252357 -84.358918 -27.861638 13.129283 -7.036765 5.074118 5.518850 -10.023978 -12.399141 6.754957 -0.371655 -11.678222 28.900515 -8.212226 -35.414449 -23.422677 17.614209 0.631344 -0.699212 0.662532 -4.273672 -26.384980 -1.542404 -10.396313 23.385954 -3.584583 -1.559868 0.288736 -3.661028 0.668581 -2.320711 -2.708338
-19.215509 86.901931 105.478346 -129.391954 -9.686294 -0.942087 3.343591 13.044691 4.214003 0.238035 1.187116 0.325913 0.406326 2.005585 0.553825 2.812671 12.144690 3.642350 1.555747 30.473919 -3.657677 2.560464 8.573581 -4.433883 -12.467495 2.993204 -3.266202 6.182790 -0.571003 87.794361 14.511118 -7.613054 9.239361 13.434956 -1.792474 -3.173625 -4.832945 5.107277 0.458333 4.099189 5.192985 -84.346585 -27.196291 13.189098 -6.633985 4.923047 5.577830 -10.062569 -12.386983 7.022081 -0.403380 -11.821416 29.153976 -8.473927 -35.410716 -23.532264 17.902350 0.561177 -0.712054 0.663054 -3.950205 -26.229753 -1.774957 -10.994296 23.775730 -3.719428 -1.290121 1.160771 -2.955001 0.627967 -2.792857 -2.614839
-19.500104 86.758821 105.231359 -129.464748 -9.668423 -0.942557 3.187955 13.153557 3.988739 0.250282 1.205919 0.316980 0.426761 2.036299 0.538643 2.911121 12.239164 3.535563 1.584560 30.479979 -3.570183 2.572767 8.577645 -4.342277 -12.402735 3.039747 -3.259802 6.217663 -0.372178 87.836459 14.621006 -7.214149 9.248337 13.445566 -1.752656 -3.216943 -4.836130 5.014885 0.514871 4.002806 5.112526 -84.348618 -26.490072 13.234697 -6.212664 4.832973 5.613907 -10.128544 -12.515335 7.080079 -0.428854 -11.979397 29.508052 -8.754295 -35.518633 -23.547831 18.210199 0.612589 -0.803984 0.730496 -3.799246 -26.163121 -1.982059 -11.808468 24.001494 -3.872517 -0.794569 2.098138 -2.756713 0.558251 -3.117038 -2.196164
-19.811776 86.594197 104.970387 -129.439029 -9.628505 -0.938861 2.951711 13.220691 3.750505 0.261557 1.223360 0.307976 0.445541 2.064772 0.523364 2.999424 12.326322 3.430740 1.607663 30.499653 -3.484749 2.579207 8.600028 -4.251917 -12.349002 3.104730 -3.249714 6.259342 -0.173033 87.854212 14.711077 -6.862084 9.281132 13.472852 -1.747085 -3.226763 -4.864790 4.934134 0.579935 3.923151 5.024837 -84.383230 -25.758858 13.276742 -5.770459 4.786695 5.646122 -10.212382 -12.786012 7.072393 -0.519484 -12.131359 29.959299 -9.031616 -35.635384 -23.538668 18.533244 0.673275 -0.923950 0.820426 -3.756587 -26.046220 -2.188361 -12.897120 24.104127 -4.086585 -0.051742 3.037765 -3.020551 0.409096 -3.321578 -1.549363
